# xmcd CD database file
#
# Track frame offsets:
#	150
#	22893
#	38483
#	51650
#	66018
#	84115
#	99016
#	113772
#	124461
#	137403
#
# Disc length: 2017 seconds
#
# Revision: 0
# Processed by: cddbd v1.5.1PL2 Copyright (c) Steve Scherf et al.
# Submitted via: CDex 1.51
#
DISCID=7407df0a
DTITLE=Various Artist - Tea Time Music4-パンフルートのやししい音を聴きながら-
DYEAR=1900
DGENRE=healing
TTITLE0=ウォーム・エアー
TTITLE1=メイビー・グッドバイ
TTITLE2=ラルゴ
TTITLE3=リービング・タウン
TTITLE4=アイル・シー・ユー・スーン
TTITLE5=イット・イズ・ゲッティング・ダーク
TTITLE6=蛍の光
TTITLE7=アベ・マリア
TTITLE8=アダージョ
TTITLE9=グリーンスリーブス
EXTD=
EXTT0=
EXTT1=
EXTT2=
EXTT3=
EXTT4=
EXTT5=
EXTT6=
EXTT7=
EXTT8=
EXTT9=
PLAYORDER=
